<mxfile host="app.diagrams.net" modified="2023-07-04T20:23:27.110Z" agent="Mozilla/5.0 (Windows NT 10.0; Win64; x64) AppleWebKit/537.36 (KHTML, like Gecko) Chrome/114.0.0.0 Safari/537.36 Edg/114.0.1823.58" etag="10UIiJtD5f-JIDfIfug9" version="21.5.0" type="device">
  <diagram name="Page-1" id="9ahxEs_rq8crXm5E5fZD">
    <mxGraphModel dx="979" dy="430" grid="1" gridSize="10" guides="1" tooltips="1" connect="1" arrows="1" fold="1" page="1" pageScale="1" pageWidth="850" pageHeight="1100" math="0" shadow="0">
      <root>
        <mxCell id="0" />
        <mxCell id="1" parent="0" />
        <mxCell id="2x2aSMbNSg1PTXOsY_km-1" value="" style="html=1;shadow=0;dashed=0;align=center;verticalAlign=middle;shape=mxgraph.arrows2.arrow;dy=0;dx=30;notch=27.33;rotation=90;" vertex="1" parent="1">
          <mxGeometry x="345" y="75" width="110" height="80" as="geometry" />
        </mxCell>
        <mxCell id="2x2aSMbNSg1PTXOsY_km-2" value="Requirements" style="text;html=1;strokeColor=none;fillColor=none;align=center;verticalAlign=middle;whiteSpace=wrap;rounded=0;" vertex="1" parent="1">
          <mxGeometry x="370" y="100" width="60" height="30" as="geometry" />
        </mxCell>
        <mxCell id="2x2aSMbNSg1PTXOsY_km-4" value="" style="html=1;shadow=0;dashed=0;align=center;verticalAlign=middle;shape=mxgraph.arrows2.arrow;dy=0;dx=30;notch=27.33;rotation=90;" vertex="1" parent="1">
          <mxGeometry x="345" y="155" width="110" height="80" as="geometry" />
        </mxCell>
        <mxCell id="2x2aSMbNSg1PTXOsY_km-6" value="Quick Design" style="text;html=1;strokeColor=none;fillColor=none;align=center;verticalAlign=middle;whiteSpace=wrap;rounded=0;" vertex="1" parent="1">
          <mxGeometry x="370" y="180" width="60" height="30" as="geometry" />
        </mxCell>
        <mxCell id="2x2aSMbNSg1PTXOsY_km-8" value="" style="html=1;shadow=0;dashed=0;align=center;verticalAlign=middle;shape=mxgraph.arrows2.arrow;dy=0;dx=30;notch=27.33;rotation=90;" vertex="1" parent="1">
          <mxGeometry x="345" y="235" width="110" height="80" as="geometry" />
        </mxCell>
        <mxCell id="2x2aSMbNSg1PTXOsY_km-9" value="Build Prototype" style="text;html=1;strokeColor=none;fillColor=none;align=center;verticalAlign=middle;whiteSpace=wrap;rounded=0;" vertex="1" parent="1">
          <mxGeometry x="370" y="260" width="60" height="30" as="geometry" />
        </mxCell>
        <mxCell id="2x2aSMbNSg1PTXOsY_km-10" value="" style="html=1;shadow=0;dashed=0;align=center;verticalAlign=middle;shape=mxgraph.arrows2.arrow;dy=0;dx=30;notch=27.33;rotation=90;" vertex="1" parent="1">
          <mxGeometry x="345" y="315" width="110" height="80" as="geometry" />
        </mxCell>
        <mxCell id="2x2aSMbNSg1PTXOsY_km-11" value="User Evaluation" style="text;html=1;strokeColor=none;fillColor=none;align=center;verticalAlign=middle;whiteSpace=wrap;rounded=0;" vertex="1" parent="1">
          <mxGeometry x="370" y="340" width="60" height="30" as="geometry" />
        </mxCell>
        <mxCell id="2x2aSMbNSg1PTXOsY_km-12" value="" style="html=1;shadow=0;dashed=0;align=center;verticalAlign=middle;shape=mxgraph.arrows2.arrow;dy=0;dx=30;notch=27.33;rotation=90;" vertex="1" parent="1">
          <mxGeometry x="345" y="395" width="110" height="80" as="geometry" />
        </mxCell>
        <mxCell id="2x2aSMbNSg1PTXOsY_km-13" value="Refining Prototype" style="text;html=1;strokeColor=none;fillColor=none;align=center;verticalAlign=middle;whiteSpace=wrap;rounded=0;" vertex="1" parent="1">
          <mxGeometry x="370" y="420" width="60" height="30" as="geometry" />
        </mxCell>
        <mxCell id="2x2aSMbNSg1PTXOsY_km-14" value="" style="html=1;shadow=0;dashed=0;align=center;verticalAlign=middle;shape=mxgraph.arrows2.arrow;dy=0;dx=30;notch=27.33;rotation=90;" vertex="1" parent="1">
          <mxGeometry x="345" y="475" width="110" height="80" as="geometry" />
        </mxCell>
        <mxCell id="2x2aSMbNSg1PTXOsY_km-15" value="Implement and Maintain" style="text;html=1;strokeColor=none;fillColor=none;align=center;verticalAlign=middle;whiteSpace=wrap;rounded=0;" vertex="1" parent="1">
          <mxGeometry x="370" y="500" width="60" height="30" as="geometry" />
        </mxCell>
        <mxCell id="2x2aSMbNSg1PTXOsY_km-16" value="" style="curved=1;endArrow=classic;html=1;rounded=0;exitX=0;exitY=0;exitDx=40;exitDy=0;exitPerimeter=0;entryX=0;entryY=0;entryDx=40;entryDy=0;entryPerimeter=0;" edge="1" parent="1" source="2x2aSMbNSg1PTXOsY_km-10" target="2x2aSMbNSg1PTXOsY_km-12">
          <mxGeometry width="50" height="50" relative="1" as="geometry">
            <mxPoint x="610" y="350" as="sourcePoint" />
            <mxPoint x="500" y="430" as="targetPoint" />
            <Array as="points">
              <mxPoint x="520" y="370" />
            </Array>
          </mxGeometry>
        </mxCell>
        <mxCell id="2x2aSMbNSg1PTXOsY_km-17" value="" style="curved=1;endArrow=classic;html=1;rounded=0;exitX=0;exitY=0;exitDx=40;exitDy=80;exitPerimeter=0;" edge="1" parent="1" source="2x2aSMbNSg1PTXOsY_km-12">
          <mxGeometry width="50" height="50" relative="1" as="geometry">
            <mxPoint x="360" y="420" as="sourcePoint" />
            <mxPoint x="360" y="340" as="targetPoint" />
            <Array as="points">
              <mxPoint x="280" y="380" />
            </Array>
          </mxGeometry>
        </mxCell>
      </root>
    </mxGraphModel>
  </diagram>
</mxfile>
